<?xml version="1.0" encoding="UTF-8" standalone="no"?>
<svg
   xmlns:dc="http://purl.org/dc/elements/1.1/"
   xmlns:cc="http://creativecommons.org/ns#"
   xmlns:rdf="http://www.w3.org/1999/02/22-rdf-syntax-ns#"
   xmlns:svg="http://www.w3.org/2000/svg"
   xmlns="http://www.w3.org/2000/svg"
   xmlns:sodipodi="http://sodipodi.sourceforge.net/DTD/sodipodi-0.dtd"
   xmlns:inkscape="http://www.inkscape.org/namespaces/inkscape"
   version="1.1"
   width="48"
   height="48"
   id="svg82"
   sodipodi:docname="logonoback.svg"
   inkscape:version="0.92.4 5da689c313, 2019-01-14">
  <metadata
     id="metadata86">
    <rdf:RDF>
      <cc:Work
         rdf:about="">
        <dc:format>image/svg+xml</dc:format>
        <dc:type
           rdf:resource="http://purl.org/dc/dcmitype/StillImage" />
        <dc:title></dc:title>
      </cc:Work>
    </rdf:RDF>
  </metadata>
  <sodipodi:namedview
     pagecolor="#ffffff"
     bordercolor="#666666"
     borderopacity="1"
     objecttolerance="10"
     gridtolerance="10"
     guidetolerance="10"
     inkscape:pageopacity="0"
     inkscape:pageshadow="2"
     inkscape:window-width="1920"
     inkscape:window-height="1020"
     id="namedview84"
     showgrid="false"
     inkscape:zoom="9.8333333"
     inkscape:cx="44.414784"
     inkscape:cy="22.930079"
     inkscape:window-x="0"
     inkscape:window-y="26"
     inkscape:window-maximized="1"
     inkscape:current-layer="g80" />
  <defs
     id="defs25">
    <linearGradient
       x1="5.83243"
       y1="10.49355"
       x2="77.05022"
       y2="74.44037"
       gradientUnits="userSpaceOnUse"
       id="color-1">
      <stop
         offset="0"
         stop-color="#000000"
         stop-opacity="0.3"
         id="stop2" />
      <stop
         offset="1"
         stop-color="#000000"
         stop-opacity="0"
         id="stop4" />
    </linearGradient>
    <filter
       id="dropshadow-base">
      <feColorMatrix
         type="matrix"
         values="0 0 0 0 0  0 0 0 0 0  0 0 0 0 0  0 0 0 .8 0"
         id="feColorMatrix7" />
      <feOffset
         dx="0"
         dy="1"
         id="feOffset9" />
      <feGaussianBlur
         stdDeviation="1"
         id="feGaussianBlur11"
         result="result1" />
      <feComposite
         in="SourceGraphic"
         in2="result1"
         id="feComposite13" />
    </filter>
    <filter
       id="dropshadow-banner"
       x="-10%"
       y="-10%"
       width="120%"
       height="130%">
      <feColorMatrix
         type="matrix"
         values="0 0 0 0 0  0 0 0 0 0  0 0 0 0 0  0 0 0 .4 0"
         id="feColorMatrix16" />
      <feOffset
         dx="0"
         dy="1"
         id="feOffset18" />
      <feGaussianBlur
         stdDeviation="0.5"
         id="feGaussianBlur20"
         result="result1" />
      <feComposite
         in="SourceGraphic"
         in2="result1"
         id="feComposite22" />
    </filter>
  </defs>
  <g
     fill="none"
     fill-rule="nonzero"
     stroke="none"
     stroke-width="none"
     stroke-linecap="butt"
     stroke-linejoin="miter"
     stroke-miterlimit="10"
     stroke-dasharray=""
     stroke-dashoffset="0"
     font-family="none"
     font-weight="none"
     font-size="none"
     text-anchor="none"
     style="mix-blend-mode: normal"
     id="g80">
    <path
       d="M8.80847,21.46007c0,-1.18623 0.96163,-2.14786 2.14786,-2.14786c1.18623,0 2.14786,0.96163 2.14786,2.14786c0,1.18623 -0.96163,2.14786 -2.14786,2.14786c-1.18623,0 -2.14786,-0.96163 -2.14786,-2.14786zM10.95633,26.58397c-2.82511,0 -5.12389,-2.29879 -5.12389,-5.12389c0,-2.82511 2.30072,-5.12389 5.12389,-5.12389c2.82511,0 5.12389,2.29879 5.12389,5.12389c0,2.82511 -2.29879,5.12389 -5.12389,5.12389zM14.86697,21.46007c0,-2.15753 -1.75312,-3.91065 -3.91065,-3.91065c-2.1556,0 -3.91065,1.75312 -3.91065,3.91065c0,2.15753 1.75505,3.91065 3.91065,3.91065c2.1556,0 3.91065,-1.75312 3.91065,-3.91065zM25.49983,33.43195h3.08827v3.93774h-10.51676v-3.93774h1.0836l-5.60378,-5.60765c0.74304,-0.24188 1.44351,-0.65016 2.03563,-1.24034c0.54761,-0.54954 0.94041,-1.19583 1.18809,-1.88276zM39.82274,16.65352l-4.94587,4.83945c-0.06579,0.06773 -0.15287,0.11223 -0.24381,0.13352c-0.1161,0.02903 -0.24188,0.01355 -0.35604,-0.04451l-2.99539,-1.57316l0.00387,0.00774l-1.84406,0.42377l-0.24381,-1.06038l-12.18667,2.79995c0.19157,-0.76046 0.21285,-1.57122 0.02709,-2.38393c-0.17415,-0.75852 -0.51278,-1.43384 -0.9617,-2.00854l12.11894,-2.78254l-0.24381,-1.06038l1.73183,-0.39668l2.09948,-2.84446c0.13158,-0.17996 0.36378,-0.25542 0.57663,-0.18189l6.5616,2.19623c0.26897,0.08901 0.41603,0.38313 0.32121,0.6521c-0.05612,0.17802 -0.20124,0.29993 -0.36959,0.33863c-0.09095,0.02129 -0.1877,0.01742 -0.28251,-0.01355l-6.20363,-2.07626l-2.30653,3.13084l0.90365,3.9358l3.44431,1.8073l4.67884,-4.57435c0.20318,-0.19931 0.52632,-0.1935 0.72756,0.00774c0.19737,0.20318 0.1935,0.53019 -0.01161,0.72756z"
       fill="none"
       stroke-width="0"
       id="path30" />
    <path
       d="M8.80847,21.46007c0,-1.18623 0.96163,-2.14786 2.14786,-2.14786c1.18623,0 2.14786,0.96163 2.14786,2.14786c0,1.18623 -0.96163,2.14786 -2.14786,2.14786c-1.18623,0 -2.14786,-0.96163 -2.14786,-2.14786zM10.95633,26.58397c-2.82511,0 -5.12389,-2.29879 -5.12389,-5.12389c0,-2.82511 2.30072,-5.12389 5.12389,-5.12389c2.82511,0 5.12389,2.29879 5.12389,5.12389c0,2.82511 -2.29879,5.12389 -5.12389,5.12389zM14.86697,21.46007c0,-2.15753 -1.75312,-3.91065 -3.91065,-3.91065c-2.1556,0 -3.91065,1.75312 -3.91065,3.91065c0,2.15753 1.75505,3.91065 3.91065,3.91065c2.1556,0 3.91065,-1.75312 3.91065,-3.91065zM25.49983,33.43195h3.08827v3.93774h-10.51676v-3.93774h1.0836l-5.60378,-5.60765c0.74304,-0.24188 1.44351,-0.65016 2.03563,-1.24034c0.54761,-0.54954 0.94041,-1.19583 1.18809,-1.88276zM39.82274,16.65352l-4.94587,4.83945c-0.06579,0.06773 -0.15287,0.11223 -0.24381,0.13352c-0.1161,0.02903 -0.24188,0.01355 -0.35604,-0.04451l-2.99539,-1.57316l0.00387,0.00774l-1.84406,0.42377l-0.24381,-1.06038l-12.18667,2.79995c0.19157,-0.76046 0.21285,-1.57122 0.02709,-2.38393c-0.17415,-0.75852 -0.51278,-1.43384 -0.9617,-2.00854l12.11894,-2.78254l-0.24381,-1.06038l1.73183,-0.39668l2.09948,-2.84446c0.13158,-0.17996 0.36378,-0.25542 0.57663,-0.18189l6.5616,2.19623c0.26897,0.08901 0.41603,0.38313 0.32121,0.6521c-0.05612,0.17802 -0.20124,0.29993 -0.36959,0.33863c-0.09095,0.02129 -0.1877,0.01742 -0.28251,-0.01355l-6.20363,-2.07626l-2.30653,3.13084l0.90365,3.9358l3.44431,1.8073l4.67884,-4.57435c0.20318,-0.19931 0.52632,-0.1935 0.72756,0.00774c0.19737,0.20318 0.1935,0.53019 -0.01161,0.72756z"
       fill="#ffffff"
       stroke-width="0"
       id="path32" />
    <path
       d="M2,24c0,-12.15026 9.84974,-22 22,-22c12.15026,0 22,9.84974 22,22c0,12.15026 -9.84974,22 -22,22c-12.15026,0 -22,-9.84974 -22,-22z"
       id="base 1 1 1"
       fill="none"
       stroke-width="1" />
    <g
       id="Capa_1 1 1"
       fill="#000000"
       stroke-width="1"
       font-family="Roboto, sans-serif"
       font-weight="400"
       font-size="14"
       text-anchor="start">
      <g
         id="g37">
        <g
           id="g35" />
      </g>
      <g
         id="g39" />
      <g
         id="g41" />
      <g
         id="g43" />
      <g
         id="g45" />
      <g
         id="g47" />
      <g
         id="g49" />
      <g
         id="g51" />
      <g
         id="g53" />
      <g
         id="g55" />
      <g
         id="g57" />
      <g
         id="g59" />
      <g
         id="g61" />
      <g
         id="g63" />
      <g
         id="g65" />
      <g
         id="g67" />
    </g>
    <rect
       x="2"
       y="2"
       width="44"
       height="22"
       fill="none"
       stroke-width="1"
       id="rect70" />
    <path
       d="M2,24v-22h44v22z"
       fill="none"
       stroke-width="1"
       id="path72" />
    <path
       d="M2,24v-22h44v22z"
       fill="none"
       stroke-width="1"
       id="path74" />
    <path
       d="M2,24v-22h44v22z"
       fill="none"
       stroke-width="1"
       id="path76" />
    <path
       d="M2,24v-22h44v22z"
       fill="none"
       stroke-width="1"
       id="path78" />
  </g>
</svg>
