<svg version="1.1" xmlns="http://www.w3.org/2000/svg" xmlns:xlink="http://www.w3.org/1999/xlink" width="48" height="48"><defs><linearGradient x1="5.83243" y1="10.49355" x2="77.05022" y2="74.44037" gradientUnits="userSpaceOnUse" id="color-1"><stop offset="0" stop-color="#000000" stop-opacity="0.3"></stop><stop offset="1" stop-color="#000000" stop-opacity="0"></stop></linearGradient><filter id="dropshadow-base"><feColorMatrix type="matrix" values="0 0 0 0 0  0 0 0 0 0  0 0 0 0 0  0 0 0 .8 0"></feColorMatrix> <feOffset dx="0" dy="1"></feOffset> <feGaussianBlur stdDeviation="1"></feGaussianBlur> <feComposite in="SourceGraphic"></feComposite></filter><filter id="dropshadow-banner" x="-10%" y="-10%" width="120%" height="130%"><feColorMatrix type="matrix" values="0 0 0 0 0  0 0 0 0 0  0 0 0 0 0  0 0 0 .4 0"></feColorMatrix> <feOffset dx="0" dy="1"></feOffset> <feGaussianBlur stdDeviation="0.5"></feGaussianBlur> <feComposite in="SourceGraphic"></feComposite></filter></defs><g fill="none" fill-rule="nonzero" stroke="none" stroke-width="none" stroke-linecap="butt" stroke-linejoin="miter" stroke-miterlimit="10" stroke-dasharray="" stroke-dashoffset="0" font-family="none" font-weight="none" font-size="none" text-anchor="none" style="mix-blend-mode: normal"><path d="M2,24c0,-12.15026 9.84974,-22 22,-22c12.15026,0 22,9.84974 22,22c0,12.15026 -9.84974,22 -22,22c-12.15026,0 -22,-9.84974 -22,-22z" id="base 1 5" fill="#4d5158" stroke-width="1"></path><path d="M5.83243,21.46007c0,-2.82511 2.30073,-5.12389 5.12389,-5.12389c1.41255,0 2.69353,0.5747 3.62136,1.50253l2.56097,2.56097c-0.02116,-0.20063 -0.0545,-0.40213 -0.10058,-0.60374c-0.17415,-0.75853 -0.51277,-1.43384 -0.9617,-2.00853l12.11894,-2.78254l-0.24381,-1.06039l1.73184,-0.39667l2.09948,-2.84445c0.13159,-0.17996 0.36379,-0.25542 0.57662,-0.18188l6.5616,2.19624c0.0778,0.02575 0.1454,0.06865 0.1999,0.12315l6.35236,6.35236c0.34481,1.54715 0.52668,3.15572 0.52668,4.80677c0,11.28609 -8.49846,20.58726 -19.44511,21.85324l-8.48355,-8.48355l0,-1.55188l-10.73637,-10.73637l0,0c-0.92783,-0.92783 -1.50253,-2.20881 -1.50253,-3.62136z" fill="url(#color-1)" stroke-width="1"></path><path d="M8.80847,21.46007c0,-1.18623 0.96163,-2.14786 2.14786,-2.14786c1.18623,0 2.14786,0.96163 2.14786,2.14786c0,1.18623 -0.96163,2.14786 -2.14786,2.14786c-1.18623,0 -2.14786,-0.96163 -2.14786,-2.14786zM10.95633,26.58397c-2.82511,0 -5.12389,-2.29879 -5.12389,-5.12389c0,-2.82511 2.30072,-5.12389 5.12389,-5.12389c2.82511,0 5.12389,2.29879 5.12389,5.12389c0,2.82511 -2.29879,5.12389 -5.12389,5.12389zM14.86697,21.46007c0,-2.15753 -1.75312,-3.91065 -3.91065,-3.91065c-2.1556,0 -3.91065,1.75312 -3.91065,3.91065c0,2.15753 1.75505,3.91065 3.91065,3.91065c2.1556,0 3.91065,-1.75312 3.91065,-3.91065zM25.49983,33.43195h3.08827v3.93774h-10.51676v-3.93774h1.0836l-5.60378,-5.60765c0.74304,-0.24188 1.44351,-0.65016 2.03563,-1.24034c0.54761,-0.54954 0.94041,-1.19583 1.18809,-1.88276zM39.82274,16.65352l-4.94587,4.83945c-0.06579,0.06773 -0.15287,0.11223 -0.24381,0.13352c-0.1161,0.02903 -0.24188,0.01355 -0.35604,-0.04451l-2.99539,-1.57316l0.00387,0.00774l-1.84406,0.42377l-0.24381,-1.06038l-12.18667,2.79995c0.19157,-0.76046 0.21285,-1.57122 0.02709,-2.38393c-0.17415,-0.75852 -0.51278,-1.43384 -0.9617,-2.00854l12.11894,-2.78254l-0.24381,-1.06038l1.73183,-0.39668l2.09948,-2.84446c0.13158,-0.17996 0.36378,-0.25542 0.57663,-0.18189l6.5616,2.19623c0.26897,0.08901 0.41603,0.38313 0.32121,0.6521c-0.05612,0.17802 -0.20124,0.29993 -0.36959,0.33863c-0.09095,0.02129 -0.1877,0.01742 -0.28251,-0.01355l-6.20363,-2.07626l-2.30653,3.13084l0.90365,3.9358l3.44431,1.8073l4.67884,-4.57435c0.20318,-0.19931 0.52632,-0.1935 0.72756,0.00774c0.19737,0.20318 0.1935,0.53019 -0.01161,0.72756z" fill="none" stroke-width="0"></path><path d="M8.80847,21.46007c0,-1.18623 0.96163,-2.14786 2.14786,-2.14786c1.18623,0 2.14786,0.96163 2.14786,2.14786c0,1.18623 -0.96163,2.14786 -2.14786,2.14786c-1.18623,0 -2.14786,-0.96163 -2.14786,-2.14786zM10.95633,26.58397c-2.82511,0 -5.12389,-2.29879 -5.12389,-5.12389c0,-2.82511 2.30072,-5.12389 5.12389,-5.12389c2.82511,0 5.12389,2.29879 5.12389,5.12389c0,2.82511 -2.29879,5.12389 -5.12389,5.12389zM14.86697,21.46007c0,-2.15753 -1.75312,-3.91065 -3.91065,-3.91065c-2.1556,0 -3.91065,1.75312 -3.91065,3.91065c0,2.15753 1.75505,3.91065 3.91065,3.91065c2.1556,0 3.91065,-1.75312 3.91065,-3.91065zM25.49983,33.43195h3.08827v3.93774h-10.51676v-3.93774h1.0836l-5.60378,-5.60765c0.74304,-0.24188 1.44351,-0.65016 2.03563,-1.24034c0.54761,-0.54954 0.94041,-1.19583 1.18809,-1.88276zM39.82274,16.65352l-4.94587,4.83945c-0.06579,0.06773 -0.15287,0.11223 -0.24381,0.13352c-0.1161,0.02903 -0.24188,0.01355 -0.35604,-0.04451l-2.99539,-1.57316l0.00387,0.00774l-1.84406,0.42377l-0.24381,-1.06038l-12.18667,2.79995c0.19157,-0.76046 0.21285,-1.57122 0.02709,-2.38393c-0.17415,-0.75852 -0.51278,-1.43384 -0.9617,-2.00854l12.11894,-2.78254l-0.24381,-1.06038l1.73183,-0.39668l2.09948,-2.84446c0.13158,-0.17996 0.36378,-0.25542 0.57663,-0.18189l6.5616,2.19623c0.26897,0.08901 0.41603,0.38313 0.32121,0.6521c-0.05612,0.17802 -0.20124,0.29993 -0.36959,0.33863c-0.09095,0.02129 -0.1877,0.01742 -0.28251,-0.01355l-6.20363,-2.07626l-2.30653,3.13084l0.90365,3.9358l3.44431,1.8073l4.67884,-4.57435c0.20318,-0.19931 0.52632,-0.1935 0.72756,0.00774c0.19737,0.20318 0.1935,0.53019 -0.01161,0.72756z" fill="#ffffff" stroke-width="0"></path><path d="M2,24c0,-12.15026 9.84974,-22 22,-22c12.15026,0 22,9.84974 22,22c0,12.15026 -9.84974,22 -22,22c-12.15026,0 -22,-9.84974 -22,-22z" id="base 1 1 1" fill="none" stroke-width="1"></path><g id="Capa_1 1 1" fill="#000000" stroke-width="1" font-family="Roboto, sans-serif" font-weight="400" font-size="14" text-anchor="start"><g><g></g></g><g></g><g></g><g></g><g></g><g></g><g></g><g></g><g></g><g></g><g></g><g></g><g></g><g></g><g></g><g></g></g><rect x="2" y="2" width="44" height="22" fill="none" stroke-width="1"></rect><path d="M2,24v-22h44v22z" fill="none" stroke-width="1"></path><path d="M2,24v-22h44v22z" fill="none" stroke-width="1"></path><path d="M2,24v-22h44v22z" fill="none" stroke-width="1"></path><path d="M2,24v-22h44v22z" fill="none" stroke-width="1"></path></g></svg>